<?xml version="1.0" standalone="no"?>
<!DOCTYPE svg PUBLIC "-//W3C//DTD SVG 20010904//EN"
 "http://www.w3.org/TR/2001/REC-SVG-20010904/DTD/svg10.dtd">
<svg version="1.0" xmlns="http://www.w3.org/2000/svg"
 width="512.000000pt" height="512.000000pt" viewBox="0 0 512.000000 512.000000"
 preserveAspectRatio="xMidYMid meet">
<metadata>
Created by potrace 1.11, written by Peter Selinger 2001-2013
</metadata>
<g transform="translate(0.000000,512.000000) scale(0.100000,-0.100000)"
fill="#000000" stroke="none">
<path d="M2480 5090 c-30 -16 -118 -59 -195 -95 -77 -36 -158 -74 -180 -85
-163 -78 -617 -242 -730 -264 -11 -2 -47 -11 -80 -20 -114 -29 -209 -48 -405
-81 -14 -3 -36 -7 -50 -9 -39 -8 -108 -19 -190 -30 -25 -4 -56 -9 -70 -11 -14
-3 -41 -7 -60 -10 -19 -3 -52 -10 -73 -16 l-39 -10 7 -232 c4 -128 8 -261 10
-297 2 -36 6 -126 10 -200 9 -206 14 -288 20 -365 6 -73 13 -160 20 -255 5
-68 14 -140 20 -160 2 -8 7 -31 10 -50 10 -64 68 -319 75 -329 6 -11 104 -49
145 -57 17 -3 134 -41 350 -114 33 -11 68 -20 77 -20 15 0 196 84 603 281 77
37 199 95 270 129 72 34 173 84 225 110 52 26 98 48 102 49 17 4 129 60 143
71 8 7 15 9 15 5 0 -5 9 0 21 11 12 10 22 18 23 16 4 -9 203 84 230 107 10 9
19 15 20 13 3 -8 128 47 137 61 3 5 8 8 10 7 2 -2 38 14 81 34 42 20 81 36 87
36 6 0 11 5 11 10 0 6 3 9 8 8 6 -1 160 71 377 178 50 24 160 77 245 118 85
40 213 102 285 136 150 72 165 78 208 85 18 3 55 11 82 17 28 6 119 12 202 12
129 1 153 3 153 16 1 8 4 78 7 155 4 77 7 203 7 279 1 116 -1 140 -14 142 -8
2 -26 5 -40 8 -44 10 -74 16 -110 21 -19 3 -42 8 -50 10 -8 3 -33 7 -55 10
-22 3 -58 7 -80 10 -35 5 -105 17 -170 29 -11 2 -72 13 -135 25 -272 52 -648
164 -855 255 -22 10 -49 22 -60 26 -11 5 -60 27 -108 49 -49 23 -91 41 -93 41
-3 0 -84 38 -180 85 -97 47 -186 85 -197 85 -12 0 -47 -14 -77 -30z m-754
-1375 c54 -19 137 -48 184 -65 47 -16 137 -47 200 -70 63 -22 156 -54 205 -71
50 -17 96 -36 103 -41 6 -6 12 -8 12 -5 0 4 44 -10 98 -29 53 -19 117 -42 142
-50 80 -27 109 -46 116 -77 9 -41 -10 -70 -64 -97 -26 -13 -51 -24 -57 -26 -5
-1 -34 -16 -63 -33 -29 -17 -58 -31 -65 -31 -7 0 -70 -30 -142 -66 -71 -36
-131 -65 -132 -65 -3 0 -250 -117 -285 -135 -37 -20 -65 -18 -107 8 -20 12
-38 24 -41 27 -3 4 -14 11 -25 18 -78 47 -159 98 -169 107 -6 6 -28 20 -48 31
-21 11 -38 23 -38 27 0 5 -7 8 -15 8 -8 0 -15 5 -15 11 0 5 -5 7 -10 4 -6 -3
-13 1 -16 9 -3 9 -12 16 -19 16 -8 0 -27 11 -43 25 -17 14 -33 25 -36 25 -5 0
-78 47 -122 77 -16 12 -45 30 -96 60 -27 16 -48 31 -48 36 0 4 -6 7 -13 7 -8
0 -31 16 -52 37 -35 34 -37 39 -33 84 4 37 11 54 31 69 15 12 29 21 31 21 3 0
47 21 98 46 51 26 95 48 98 48 24 7 80 37 85 45 4 6 10 8 13 6 4 -2 28 6 52
19 71 37 161 34 286 -10z"/>
<path d="M1370 3624 c-74 -36 -168 -81 -208 -101 -122 -58 -136 -43 350 -356
l417 -268 401 192 c220 106 400 195 400 199 0 4 -253 96 -562 204 -455 159
-573 196 -613 196 -40 -1 -76 -14 -185 -66z"/>
<path d="M4405 3810 c-159 -23 -171 -28 -1688 -756 -821 -394 -1506 -723
-1523 -731 -30 -15 -46 -10 -504 137 l-472 152 -105 -48 c-57 -26 -106 -51
-109 -56 -8 -13 4 -29 121 -160 277 -310 575 -607 688 -683 80 -55 277 -53
585 6 409 78 764 194 1146 374 65 30 120 54 122 52 2 -2 -39 -412 -91 -911
-52 -500 -95 -919 -95 -932 0 -13 9 -28 20 -34 17 -9 54 5 223 86 111 53 214
107 228 121 15 13 34 41 43 61 9 20 182 509 384 1086 l368 1048 505 243 c277
133 527 255 554 271 72 40 225 197 258 264 36 75 50 151 36 204 -23 86 -134
156 -305 191 -93 19 -303 28 -389 15z"/>
<path d="M4583 2958 c-18 -6 -33 -15 -33 -19 0 -5 -5 -9 -11 -9 -6 0 -63 -26
-127 -57 -65 -32 -119 -58 -122 -58 -3 0 -16 -7 -30 -15 -14 -8 -27 -15 -30
-15 -3 -1 -63 -29 -135 -64 -71 -35 -167 -81 -213 -102 -63 -29 -85 -45 -93
-66 -13 -33 -129 -363 -133 -378 -4 -13 -15 -43 -28 -75 -5 -14 -10 -26 -9
-27 0 -2 -15 -47 -35 -100 -19 -54 -46 -129 -59 -168 -13 -38 -44 -128 -70
-200 -25 -71 -53 -150 -61 -175 -8 -25 -18 -52 -21 -60 -3 -8 -32 -91 -64
-185 -33 -93 -63 -179 -68 -190 -8 -16 -31 -83 -36 -105 -1 -3 -4 -12 -7 -20
-4 -8 -12 -31 -18 -50 -87 -249 -124 -350 -139 -378 -24 -45 -80 -92 -148
-123 -37 -18 -132 -63 -210 -100 -145 -71 -169 -77 -206 -57 -57 30 -64 64
-48 215 6 60 29 281 51 493 22 212 45 428 50 480 6 52 21 205 35 340 14 135
27 260 31 278 3 19 2 32 -3 30 -12 -6 -243 -109 -278 -123 -16 -7 -41 -18 -55
-24 -14 -6 -38 -15 -55 -20 -16 -5 -68 -23 -115 -40 -47 -18 -107 -38 -135
-46 -27 -7 -81 -23 -120 -35 -38 -11 -79 -23 -90 -25 -11 -3 -65 -16 -120 -30
-168 -42 -359 -74 -508 -86 -78 -7 -144 -13 -146 -15 -2 -2 5 -16 15 -31 23
-34 33 -51 76 -123 86 -146 280 -414 383 -530 64 -72 261 -269 315 -315 19
-17 64 -55 100 -85 36 -30 67 -57 70 -60 3 -3 41 -35 85 -70 44 -36 85 -69 92
-75 7 -5 18 -15 25 -20 7 -6 54 -35 103 -64 50 -30 97 -60 105 -67 35 -29 186
-98 214 -98 37 1 146 51 239 111 37 23 70 43 74 43 18 0 268 188 339 255 30
28 133 116 163 140 59 45 330 328 384 400 4 5 21 28 38 50 189 244 398 590
514 850 62 138 176 454 190 525 2 8 4 17 5 20 1 3 2 9 1 13 -1 4 3 16 8 26 6
10 12 29 15 42 2 13 14 65 26 114 12 50 23 97 25 105 2 8 13 65 25 125 12 61
23 116 25 123 5 14 2 14 -42 0z"/>
</g>
</svg>
